<svg width="143" height="143" viewBox="0 0 143 143" fill="none" xmlns="http://www.w3.org/2000/svg">
<g transform="translate(0, 30.5)">
<g filter="url(#filter0_i_4_10)">
<mask id="mask0_4_10" style="mask-type:alpha" maskUnits="userSpaceOnUse" x="75" y="8" width="68" height="68">
<path d="M109 76C127.778 76 143 60.7777 143 42C143 23.2223 127.778 8 109 8C90.2223 8 75 23.2223 75 42C75 60.7777 90.2223 76 109 76Z" fill="url(#paint0_radial_4_10)"></path>
</mask>
<g mask="url(#mask0_4_10)">
<path d="M109 76C127.778 76 143 60.7777 143 42C143 23.2223 127.778 8 109 8C90.2223 8 75 23.2223 75 42C75 60.7777 90.2223 76 109 76Z" fill="url(#paint1_radial_4_10)"></path>
<path d="M109 76C127.778 76 143 60.7777 143 42C143 23.2223 127.778 8 109 8C90.2223 8 75 23.2223 75 42C75 60.7777 90.2223 76 109 76Z" fill="url(#paint2_radial_4_10)"></path>
<path d="M109 76C127.778 76 143 60.7777 143 42C143 23.2223 127.778 8 109 8C90.2223 8 75 23.2223 75 42C75 60.7777 90.2223 76 109 76Z" fill="url(#paint3_radial_4_10)"></path>
<path d="M107 79C109.761 79 112 77.8807 112 76.5C112 75.1193 109.761 74 107 74C104.239 74 102 75.1193 102 76.5C102 77.8807 104.239 79 107 79Z" fill="black" fill-opacity="0.18"></path>
</g>
</g>
<path d="M94.4189 55V39H99.8252C101.08 39 102.106 39.2266 102.903 39.6797C103.705 40.1276 104.299 40.7344 104.685 41.5C105.07 42.2656 105.263 43.1198 105.263 44.0625C105.263 45.0052 105.07 45.862 104.685 46.6328C104.304 47.4036 103.716 48.0182 102.919 48.4766C102.122 48.9297 101.101 49.1562 99.8564 49.1562H95.9814V47.4375H99.7939C100.653 47.4375 101.343 47.2891 101.864 46.9922C102.385 46.6953 102.763 46.2943 102.997 45.7891C103.237 45.2786 103.356 44.7031 103.356 44.0625C103.356 43.4219 103.237 42.849 102.997 42.3437C102.763 41.8385 102.382 41.4427 101.856 41.1562C101.33 40.8646 100.632 40.7187 99.7627 40.7187H96.3564V55H94.4189ZM113.036 55.25C111.88 55.25 110.882 54.9948 110.044 54.4844C109.211 53.9688 108.567 53.25 108.114 52.3281C107.666 51.401 107.442 50.3229 107.442 49.0938C107.442 47.8646 107.666 46.7812 108.114 45.8437C108.567 44.901 109.198 44.1667 110.005 43.6406C110.817 43.1094 111.765 42.8438 112.849 42.8438C113.474 42.8438 114.091 42.9479 114.7 43.1562C115.31 43.3646 115.864 43.7031 116.364 44.1719C116.864 44.6354 117.263 45.25 117.56 46.0156C117.856 46.7812 118.005 47.724 118.005 48.8437V49.625H108.755V48.0312H116.13C116.13 47.3542 115.994 46.75 115.724 46.2187C115.458 45.6875 115.078 45.2682 114.583 44.9609C114.093 44.6536 113.515 44.5 112.849 44.5C112.114 44.5 111.479 44.6823 110.942 45.0469C110.411 45.4062 110.002 45.875 109.716 46.4531C109.429 47.0312 109.286 47.651 109.286 48.3125V49.375C109.286 50.2813 109.442 51.0495 109.755 51.6797C110.073 52.3047 110.513 52.7812 111.075 53.1094C111.638 53.4323 112.291 53.5938 113.036 53.5938C113.521 53.5938 113.958 53.526 114.349 53.3906C114.744 53.25 115.086 53.0417 115.372 52.7656C115.659 52.4844 115.88 52.1354 116.036 51.7187L117.817 52.2188C117.63 52.8229 117.315 53.3542 116.872 53.8125C116.429 54.2656 115.882 54.6198 115.231 54.875C114.58 55.125 113.849 55.25 113.036 55.25ZM124.341 55.2813C123.58 55.2813 122.89 55.138 122.271 54.8516C121.651 54.5599 121.159 54.1406 120.794 53.5938C120.429 53.0417 120.247 52.375 120.247 51.5937C120.247 50.9062 120.382 50.349 120.653 49.9219C120.924 49.4896 121.286 49.151 121.739 48.9062C122.192 48.6615 122.692 48.4792 123.239 48.3594C123.791 48.2344 124.346 48.1354 124.903 48.0625C125.632 47.9687 126.224 47.8984 126.677 47.8516C127.135 47.7995 127.468 47.7135 127.677 47.5937C127.89 47.474 127.997 47.2656 127.997 46.9687V46.9062C127.997 46.1354 127.786 45.5365 127.364 45.1094C126.948 44.6823 126.315 44.4687 125.466 44.4687C124.586 44.4687 123.896 44.6615 123.396 45.0469C122.896 45.4323 122.544 45.8437 122.341 46.2812L120.591 45.6562C120.903 44.9271 121.32 44.3594 121.841 43.9531C122.367 43.5417 122.94 43.2552 123.56 43.0937C124.185 42.9271 124.799 42.8438 125.403 42.8438C125.789 42.8438 126.231 42.8906 126.731 42.9844C127.237 43.0729 127.724 43.2578 128.192 43.5391C128.666 43.8203 129.06 44.2448 129.372 44.8125C129.685 45.3802 129.841 46.1406 129.841 47.0938V55H127.997V53.375H127.903C127.778 53.6354 127.57 53.9141 127.278 54.2109C126.987 54.5078 126.599 54.7604 126.114 54.9687C125.63 55.1771 125.039 55.2813 124.341 55.2813ZM124.622 53.625C125.351 53.625 125.966 53.4818 126.466 53.1953C126.971 52.9089 127.351 52.5391 127.606 52.0859C127.867 51.6328 127.997 51.1562 127.997 50.6562V48.9687C127.919 49.0625 127.747 49.1484 127.481 49.2266C127.221 49.2995 126.919 49.3646 126.575 49.4219C126.237 49.474 125.906 49.5208 125.583 49.5625C125.265 49.599 125.007 49.6302 124.81 49.6562C124.33 49.7187 123.882 49.8203 123.466 49.9609C123.054 50.0964 122.721 50.3021 122.466 50.5781C122.216 50.849 122.091 51.2187 122.091 51.6875C122.091 52.3281 122.328 52.8125 122.802 53.1406C123.281 53.4635 123.888 53.625 124.622 53.625Z" fill="#275017" style="mix-blend-mode:multiply"></path>
<path d="M93.4189 56V40H98.8252C100.08 40 101.106 40.2266 101.903 40.6797C102.705 41.1276 103.299 41.7344 103.685 42.5C104.07 43.2656 104.263 44.1198 104.263 45.0625C104.263 46.0052 104.07 46.862 103.685 47.6328C103.304 48.4036 102.716 49.0182 101.919 49.4766C101.122 49.9297 100.101 50.1562 98.8564 50.1562H94.9814V48.4375H98.7939C99.6533 48.4375 100.343 48.2891 100.864 47.9922C101.385 47.6953 101.763 47.2943 101.997 46.7891C102.237 46.2786 102.356 45.7031 102.356 45.0625C102.356 44.4219 102.237 43.849 101.997 43.3437C101.763 42.8385 101.382 42.4427 100.856 42.1562C100.33 41.8646 99.6325 41.7187 98.7627 41.7187H95.3564V56H93.4189ZM112.036 56.25C110.88 56.25 109.882 55.9948 109.044 55.4844C108.211 54.9688 107.567 54.25 107.114 53.3281C106.666 52.401 106.442 51.3229 106.442 50.0938C106.442 48.8646 106.666 47.7812 107.114 46.8437C107.567 45.901 108.198 45.1667 109.005 44.6406C109.817 44.1094 110.765 43.8438 111.849 43.8438C112.474 43.8438 113.091 43.9479 113.7 44.1562C114.31 44.3646 114.864 44.7031 115.364 45.1719C115.864 45.6354 116.263 46.25 116.56 47.0156C116.856 47.7812 117.005 48.724 117.005 49.8437V50.625H107.755V49.0312H115.13C115.13 48.3542 114.994 47.75 114.724 47.2187C114.458 46.6875 114.078 46.2682 113.583 45.9609C113.093 45.6536 112.515 45.5 111.849 45.5C111.114 45.5 110.479 45.6823 109.942 46.0469C109.411 46.4062 109.002 46.875 108.716 47.4531C108.429 48.0312 108.286 48.651 108.286 49.3125V50.375C108.286 51.2813 108.442 52.0495 108.755 52.6797C109.073 53.3047 109.513 53.7812 110.075 54.1094C110.638 54.4323 111.291 54.5938 112.036 54.5938C112.521 54.5938 112.958 54.526 113.349 54.3906C113.744 54.25 114.086 54.0417 114.372 53.7656C114.659 53.4844 114.88 53.1354 115.036 52.7187L116.817 53.2188C116.63 53.8229 116.315 54.3542 115.872 54.8125C115.429 55.2656 114.882 55.6198 114.231 55.875C113.58 56.125 112.849 56.25 112.036 56.25ZM123.341 56.2813C122.58 56.2813 121.89 56.138 121.271 55.8516C120.651 55.5599 120.159 55.1406 119.794 54.5938C119.429 54.0417 119.247 53.375 119.247 52.5937C119.247 51.9062 119.382 51.349 119.653 50.9219C119.924 50.4896 120.286 50.151 120.739 49.9062C121.192 49.6615 121.692 49.4792 122.239 49.3594C122.791 49.2344 123.346 49.1354 123.903 49.0625C124.632 48.9687 125.224 48.8984 125.677 48.8516C126.135 48.7995 126.468 48.7135 126.677 48.5937C126.89 48.474 126.997 48.2656 126.997 47.9687V47.9062C126.997 47.1354 126.786 46.5365 126.364 46.1094C125.948 45.6823 125.315 45.4687 124.466 45.4687C123.586 45.4687 122.896 45.6615 122.396 46.0469C121.896 46.4323 121.544 46.8437 121.341 47.2812L119.591 46.6562C119.903 45.9271 120.32 45.3594 120.841 44.9531C121.367 44.5417 121.94 44.2552 122.56 44.0937C123.185 43.9271 123.799 43.8438 124.403 43.8438C124.789 43.8438 125.231 43.8906 125.731 43.9844C126.237 44.0729 126.724 44.2578 127.192 44.5391C127.666 44.8203 128.06 45.2448 128.372 45.8125C128.685 46.3802 128.841 47.1406 128.841 48.0938V56H126.997V54.375H126.903C126.778 54.6354 126.57 54.9141 126.278 55.2109C125.987 55.5078 125.599 55.7604 125.114 55.9687C124.63 56.1771 124.039 56.2813 123.341 56.2813ZM123.622 54.625C124.351 54.625 124.966 54.4818 125.466 54.1953C125.971 53.9089 126.351 53.5391 126.606 53.0859C126.867 52.6328 126.997 52.1562 126.997 51.6562V49.9687C126.919 50.0625 126.747 50.1484 126.481 50.2266C126.221 50.2995 125.919 50.3646 125.575 50.4219C125.237 50.474 124.906 50.5208 124.583 50.5625C124.265 50.599 124.007 50.6302 123.81 50.6562C123.33 50.7187 122.882 50.8203 122.466 50.9609C122.054 51.0964 121.721 51.3021 121.466 51.5781C121.216 51.849 121.091 52.2187 121.091 52.6875C121.091 53.3281 121.328 53.8125 121.802 54.1406C122.281 54.4635 122.888 54.625 123.622 54.625Z" fill="#275017" style="mix-blend-mode:multiply"></path>
<path d="M4.2983 66V16.5455H23.8097C27.5445 16.5455 30.732 17.2135 33.3722 18.5497C36.0284 19.8698 38.0488 21.7453 39.4332 24.1761C40.8338 26.5909 41.5341 29.4323 41.5341 32.7003C41.5341 35.9844 40.8258 38.8097 39.4091 41.1761C37.9924 43.5265 35.9399 45.3295 33.2514 46.5852C30.5791 47.8409 27.3433 48.4688 23.544 48.4688H10.4801V40.0653H21.8537C23.8499 40.0653 25.508 39.7917 26.8281 39.2443C28.1482 38.697 29.1302 37.8759 29.7741 36.7812C30.4342 35.6866 30.7642 34.3262 30.7642 32.7003C30.7642 31.0582 30.4342 29.6738 29.7741 28.5469C29.1302 27.42 28.1402 26.5668 26.804 25.9872C25.4839 25.3916 23.8177 25.0938 21.8054 25.0938H14.7543V66H4.2983ZM31.0057 43.4943L43.2969 66H31.7543L19.7287 43.4943H31.0057ZM66.4545 66H48.9233V16.5455H66.5994C71.5739 16.5455 75.8561 17.5355 79.446 19.5156C83.036 21.4796 85.7969 24.3049 87.7287 27.9915C89.6766 31.678 90.6506 36.089 90.6506 41.2244C90.6506 46.3759 89.6766 50.803 87.7287 54.5057C85.7969 58.2083 83.0199 61.0497 79.3977 63.0298C75.7917 65.0099 71.4773 66 66.4545 66ZM59.3793 57.0412H66.0199C69.1108 57.0412 71.7107 56.4938 73.8196 55.3991C75.9446 54.2884 77.5384 52.5739 78.6009 50.2557C79.6795 47.9214 80.2188 44.911 80.2188 41.2244C80.2188 37.5701 79.6795 34.5838 78.6009 32.2656C77.5384 29.9474 75.9527 28.241 73.8438 27.1463C71.7348 26.0516 69.1349 25.5043 66.044 25.5043H59.3793V57.0412Z" fill="#CCCCCC"></path>
<path d="M9.70455 75V69.1818H11.6705C12.125 69.1818 12.4981 69.2595 12.7898 69.4148C13.0814 69.5682 13.2973 69.7794 13.4375 70.0483C13.5777 70.3172 13.6477 70.6231 13.6477 70.9659C13.6477 71.3087 13.5777 71.6127 13.4375 71.8778C13.2973 72.143 13.0824 72.3513 12.7926 72.5028C12.5028 72.6525 12.1326 72.7273 11.6818 72.7273H10.0909V72.0909H11.6591C11.9697 72.0909 12.2197 72.0455 12.4091 71.9545C12.6004 71.8636 12.7386 71.7348 12.8239 71.5682C12.911 71.3996 12.9545 71.1989 12.9545 70.9659C12.9545 70.733 12.911 70.5294 12.8239 70.3551C12.7367 70.1809 12.5975 70.0464 12.4062 69.9517C12.215 69.8551 11.9621 69.8068 11.6477 69.8068H10.4091V75H9.70455ZM12.4432 72.3864L13.875 75H13.0568L11.6477 72.3864H12.4432ZM14.8217 75V69.1818H18.3331V69.8068H15.5263V71.7727H18.1513V72.3977H15.5263V74.375H18.3786V75H14.8217ZM19.603 69.1818H20.4439L22.4212 74.0114H22.4893L24.4666 69.1818H25.3075V75H24.6484V70.5795H24.5916L22.7734 75H22.1371L20.3189 70.5795H20.2621V75H19.603V69.1818ZM31.6293 72.0909C31.6293 72.7045 31.5185 73.2348 31.2969 73.6818C31.0753 74.1288 30.7713 74.4735 30.3849 74.7159C29.9986 74.9583 29.5573 75.0795 29.0611 75.0795C28.5649 75.0795 28.1236 74.9583 27.7372 74.7159C27.3509 74.4735 27.0469 74.1288 26.8253 73.6818C26.6037 73.2348 26.4929 72.7045 26.4929 72.0909C26.4929 71.4773 26.6037 70.947 26.8253 70.5C27.0469 70.053 27.3509 69.7083 27.7372 69.4659C28.1236 69.2235 28.5649 69.1023 29.0611 69.1023C29.5573 69.1023 29.9986 69.2235 30.3849 69.4659C30.7713 69.7083 31.0753 70.053 31.2969 70.5C31.5185 70.947 31.6293 71.4773 31.6293 72.0909ZM30.9474 72.0909C30.9474 71.5871 30.8632 71.1619 30.6946 70.8153C30.5279 70.4688 30.3016 70.2064 30.0156 70.0284C29.7315 69.8504 29.4134 69.7614 29.0611 69.7614C28.7088 69.7614 28.3897 69.8504 28.1037 70.0284C27.8196 70.2064 27.5933 70.4688 27.4247 70.8153C27.258 71.1619 27.1747 71.5871 27.1747 72.0909C27.1747 72.5947 27.258 73.0199 27.4247 73.3665C27.5933 73.7131 27.8196 73.9754 28.1037 74.1534C28.3897 74.3314 28.7088 74.4205 29.0611 74.4205C29.4134 74.4205 29.7315 74.3314 30.0156 74.1534C30.3016 73.9754 30.5279 73.7131 30.6946 73.3665C30.8632 73.0199 30.9474 72.5947 30.9474 72.0909ZM32.2536 69.8068V69.1818H36.6172V69.8068H34.7876V75H34.0831V69.8068H32.2536ZM37.7045 75V69.1818H41.2159V69.8068H38.4091V71.7727H41.0341V72.3977H38.4091V74.375H41.2614V75H37.7045ZM46.5312 75H44.7358V69.1818H46.6108C47.1752 69.1818 47.6581 69.2983 48.0597 69.5312C48.4612 69.7623 48.7689 70.0947 48.983 70.5284C49.197 70.9602 49.304 71.4773 49.304 72.0795C49.304 72.6856 49.196 73.2074 48.9801 73.6449C48.7642 74.0805 48.4498 74.4157 48.0369 74.6506C47.6241 74.8835 47.1222 75 46.5312 75ZM45.4403 74.375H46.4858C46.9669 74.375 47.3655 74.2822 47.6818 74.0966C47.9981 73.911 48.2339 73.6468 48.3892 73.304C48.5445 72.9612 48.6222 72.553 48.6222 72.0795C48.6222 71.6098 48.5455 71.2055 48.392 70.8665C48.2386 70.5256 48.0095 70.2642 47.7045 70.0824C47.3996 69.8987 47.0199 69.8068 46.5653 69.8068H45.4403V74.375ZM50.4858 75V69.1818H53.9972V69.8068H51.1903V71.7727H53.8153V72.3977H51.1903V74.375H54.0426V75H50.4858ZM58.4489 70.6364C58.4148 70.3485 58.2765 70.125 58.0341 69.9659C57.7917 69.8068 57.4943 69.7273 57.142 69.7273C56.8845 69.7273 56.6591 69.7689 56.4659 69.8523C56.2746 69.9356 56.125 70.0502 56.017 70.196C55.911 70.3419 55.858 70.5076 55.858 70.6932C55.858 70.8485 55.8949 70.982 55.9688 71.0938C56.0445 71.2036 56.1411 71.2955 56.2585 71.3693C56.3759 71.4413 56.4991 71.5009 56.6278 71.5483C56.7566 71.5937 56.875 71.6307 56.983 71.6591L57.5739 71.8182C57.7254 71.858 57.8939 71.9129 58.0795 71.983C58.267 72.053 58.446 72.1487 58.6165 72.2699C58.7888 72.3892 58.9309 72.5426 59.0426 72.7301C59.1544 72.9176 59.2102 73.1477 59.2102 73.4205C59.2102 73.7348 59.1278 74.0189 58.9631 74.2727C58.8002 74.5265 58.5616 74.7282 58.2472 74.8778C57.9347 75.0275 57.5549 75.1023 57.108 75.1023C56.6913 75.1023 56.3305 75.035 56.0256 74.9006C55.7225 74.7661 55.4839 74.5786 55.3097 74.3381C55.1373 74.0975 55.0398 73.8182 55.017 73.5H55.7443C55.7633 73.7197 55.8371 73.9015 55.9659 74.0455C56.0966 74.1875 56.2614 74.2936 56.4602 74.3636C56.661 74.4318 56.8769 74.4659 57.108 74.4659C57.3769 74.4659 57.6184 74.4223 57.8324 74.3352C58.0464 74.2462 58.2159 74.1231 58.3409 73.9659C58.4659 73.8068 58.5284 73.6212 58.5284 73.4091C58.5284 73.2159 58.4744 73.0587 58.3665 72.9375C58.2585 72.8163 58.1165 72.7178 57.9403 72.642C57.7642 72.5663 57.5739 72.5 57.3693 72.4432L56.6534 72.2386C56.1989 72.108 55.839 71.9214 55.5739 71.679C55.3087 71.4366 55.1761 71.1193 55.1761 70.7273C55.1761 70.4015 55.2642 70.1174 55.4403 69.875C55.6184 69.6307 55.857 69.4413 56.1562 69.3068C56.4574 69.1705 56.7936 69.1023 57.1648 69.1023C57.5398 69.1023 57.8731 69.1695 58.1648 69.304C58.4564 69.4366 58.6875 69.6184 58.858 69.8494C59.0303 70.0805 59.1212 70.3428 59.1307 70.6364H58.4489ZM60.3686 75V69.1818H61.0732V72.0682H61.1413L63.755 69.1818H64.6754L62.2322 71.8068L64.6754 75H63.8232L61.8004 72.2955L61.0732 73.1136V75H60.3686ZM65.2692 69.8068V69.1818H69.6328V69.8068H67.8033V75H67.0987V69.8068H65.2692ZM75.3871 72.0909C75.3871 72.7045 75.2763 73.2348 75.0547 73.6818C74.8331 74.1288 74.5291 74.4735 74.1428 74.7159C73.7564 74.9583 73.3151 75.0795 72.8189 75.0795C72.3227 75.0795 71.8814 74.9583 71.495 74.7159C71.1087 74.4735 70.8047 74.1288 70.5831 73.6818C70.3615 73.2348 70.2507 72.7045 70.2507 72.0909C70.2507 71.4773 70.3615 70.947 70.5831 70.5C70.8047 70.053 71.1087 69.7083 71.495 69.4659C71.8814 69.2235 72.3227 69.1023 72.8189 69.1023C73.3151 69.1023 73.7564 69.2235 74.1428 69.4659C74.5291 69.7083 74.8331 70.053 75.0547 70.5C75.2763 70.947 75.3871 71.4773 75.3871 72.0909ZM74.7053 72.0909C74.7053 71.5871 74.621 71.1619 74.4524 70.8153C74.2857 70.4688 74.0594 70.2064 73.7734 70.0284C73.4893 69.8504 73.1712 69.7614 72.8189 69.7614C72.4666 69.7614 72.1475 69.8504 71.8615 70.0284C71.5774 70.2064 71.3511 70.4688 71.1825 70.8153C71.0159 71.1619 70.9325 71.5871 70.9325 72.0909C70.9325 72.5947 71.0159 73.0199 71.1825 73.3665C71.3511 73.7131 71.5774 73.9754 71.8615 74.1534C72.1475 74.3314 72.4666 74.4205 72.8189 74.4205C73.1712 74.4205 73.4893 74.3314 73.7734 74.1534C74.0594 73.9754 74.2857 73.7131 74.4524 73.3665C74.621 73.0199 74.7053 72.5947 74.7053 72.0909ZM76.5717 75V69.1818H78.5376C78.9941 69.1818 79.3672 69.2642 79.657 69.429C79.9486 69.5919 80.1645 69.8125 80.3047 70.0909C80.4448 70.3693 80.5149 70.6799 80.5149 71.0227C80.5149 71.3655 80.4448 71.6771 80.3047 71.9574C80.1664 72.2377 79.9524 72.4612 79.6626 72.6278C79.3729 72.7926 79.0017 72.875 78.549 72.875H77.1399V72.25H78.5263C78.8388 72.25 79.0897 72.196 79.2791 72.0881C79.4685 71.9801 79.6058 71.8343 79.6911 71.6506C79.7782 71.465 79.8217 71.2557 79.8217 71.0227C79.8217 70.7898 79.7782 70.5814 79.6911 70.3977C79.6058 70.214 79.4676 70.0701 79.2763 69.9659C79.085 69.8598 78.8312 69.8068 78.5149 69.8068H77.2763V75H76.5717Z" fill="#888888"></path>
<defs>
<filter id="filter0_i_4_10" x="75" y="8" width="68" height="72" filterUnits="userSpaceOnUse" color-interpolation-filters="sRGB">
<feFlood flood-opacity="0" result="BackgroundImageFix"></feFlood>
<feBlend mode="normal" in="SourceGraphic" in2="BackgroundImageFix" result="shape"></feBlend>
<feColorMatrix in="SourceAlpha" type="matrix" values="0 0 0 0 0 0 0 0 0 0 0 0 0 0 0 0 0 0 127 0" result="hardAlpha"></feColorMatrix>
<feOffset dy="4"></feOffset>
<feGaussianBlur stdDeviation="23"></feGaussianBlur>
<feComposite in2="hardAlpha" operator="arithmetic" k2="-1" k3="1"></feComposite>
<feColorMatrix type="matrix" values="0 0 0 0 0 0 0 0 0 0 0 0 0 0 0 0 0 0 0.25 0"></feColorMatrix>
<feBlend mode="normal" in2="shape" result="effect1_innerShadow_4_10"></feBlend>
</filter>
<radialGradient id="paint0_radial_4_10" cx="0" cy="0" r="1" gradientUnits="userSpaceOnUse" gradientTransform="translate(96 31) scale(44)">
<stop stop-color="#D4EDA8"></stop>
<stop offset="0.22" stop-color="#7EC850"></stop>
<stop offset="0.58" stop-color="#4A9C28"></stop>
<stop offset="0.82" stop-color="#2D6E14"></stop>
<stop offset="1" stop-color="#1A4A08"></stop>
</radialGradient>
<radialGradient id="paint1_radial_4_10" cx="0" cy="0" r="1" gradientUnits="userSpaceOnUse" gradientTransform="translate(96 31) scale(44)">
<stop stop-color="#D4EDA8"></stop>
<stop offset="0.22" stop-color="#7EC850"></stop>
<stop offset="0.58" stop-color="#4A9C28"></stop>
<stop offset="0.82" stop-color="#2D6E14"></stop>
<stop offset="1" stop-color="#1A4A08"></stop>
</radialGradient>
<radialGradient id="paint2_radial_4_10" cx="0" cy="0" r="1" gradientUnits="userSpaceOnUse" gradientTransform="translate(109 42) scale(34)">
<stop offset="0.6" stop-opacity="0"></stop>
<stop offset="1" stop-opacity="0.28"></stop>
</radialGradient>
<radialGradient id="paint3_radial_4_10" cx="0" cy="0" r="1" gradientUnits="userSpaceOnUse" gradientTransform="translate(95 27) scale(14)">
<stop stop-color="#E6FFC8" stop-opacity="0.72"></stop>
<stop offset="1" stop-color="#E6FFC8" stop-opacity="0"></stop>
</radialGradient>
</defs>
</g>
</svg>